_12Mar_ss_12ms_01.mot
version=1
nRows=38
nColumns=19
inDegrees=yes
endheader

time	ground_force_vx	ground_force_vy	ground_force_vz	ground_force_px	ground_force_py	ground_force_pz	ground_torque_x	ground_torque_y	ground_torque_z	1_ground_force_vx	1_ground_force_vy	1_ground_force_vz	1_ground_force_px	1_ground_force_py	1_ground_force_pz	1_ground_torque_x	1_ground_torque_y	1_ground_torque_z
	15.300000	-0.000000	0.000000	-0.000000	0.000000	0.000000	0.000000	0.000000	-0.000000	0.000000	-46.095740	634.396742	3.719764	0.572903	0.000000	-0.901986	0.000033	-15.714630	0.000009
15.301000	-0.000000	0.000000	-0.000000	0.000000	0.000000	0.000000	0.000000	-0.000000	0.000000	-46.009806	634.915157	3.140926	0.572948	0.000000	-0.900806	0.000033	-15.729182	0.000010
15.302000	-0.000000	0.000000	-0.000000	0.000000	0.000000	0.000000	0.000000	-0.000000	0.000000	-45.927245	635.461363	2.560292	0.572993	0.000000	-0.899620	0.000032	-15.744938	0.000011
15.303000	-0.000000	0.000000	-0.000000	0.000000	0.000000	0.000000	0.000000	-0.000000	0.000000	-45.848254	636.035908	1.978241	0.573038	0.000000	-0.898429	0.000031	-15.761906	0.000012
15.304000	-0.000000	0.000000	-0.000000	0.000000	0.000000	0.000000	0.000000	-0.000000	0.000000	-45.773018	636.639320	1.395140	0.573081	0.000000	-0.897234	0.000031	-15.780089	0.000012
15.305000	-0.000000	0.000000	-0.000000	0.000000	0.000000	0.000000	0.000000	-0.000000	0.000000	-45.701707	637.272102	0.811340	0.573123	0.000000	-0.896035	0.000030	-15.799487	0.000013
15.306000	-0.000000	0.000000	-0.000000	0.000000	0.000000	0.000000	0.000000	-0.000000	0.000000	-45.634479	637.934733	0.227175	0.573165	0.000000	-0.894834	0.000029	-15.820102	0.000014
15.307000	-0.000000	0.000000	-0.000000	0.000000	0.000000	0.000000	0.000000	-0.000000	0.000000	-45.571477	638.627665	-0.357038	0.573205	0.000000	-0.893631	0.000029	-15.841931	0.000015
15.308000	-0.000000	0.000000	-0.000000	0.000000	0.000000	0.000000	0.000000	-0.000000	0.000000	-45.512830	639.351325	-0.940999	0.573244	0.000000	-0.892426	0.000028	-15.864970	0.000015
15.309000	-0.000000	0.000000	-0.000000	0.000000	0.000000	0.000000	0.000000	-0.000000	0.000000	-45.458656	640.106111	-1.524429	0.573282	0.000000	-0.891220	0.000028	-15.889214	0.000016
15.310000	-0.000000	0.000000	-0.000000	0.000000	0.000000	0.000000	0.000000	-0.000000	0.000000	-45.409054	640.892394	-2.107068	0.573318	0.000000	-0.890014	0.000027	-15.914655	0.000017
15.311000	-0.000000	0.000000	-0.000000	0.000000	0.000000	0.000000	0.000000	-0.000000	0.000000	-45.364112	641.710513	-2.688674	0.573353	0.000000	-0.888808	0.000027	-15.941284	0.000017
15.312000	-0.000000	0.000000	-0.000000	0.000000	0.000000	0.000000	0.000000	-0.000000	0.000000	-45.323906	642.560778	-3.269027	0.573386	0.000000	-0.887603	0.000026	-15.969091	0.000018
15.313000	-0.000000	0.000000	-0.000000	0.000000	0.000000	0.000000	0.000000	-0.000000	0.000000	-45.288494	643.443469	-3.847927	0.573418	0.000000	-0.886400	0.000026	-15.998064	0.000018
15.314000	-0.000000	0.000000	-0.000000	0.000000	0.000000	0.000000	0.000000	-0.000000	0.000000	-45.257924	644.358833	-4.425195	0.573448	0.000000	-0.885199	0.000026	-16.028187	0.000019
15.315000	-0.000000	0.000000	-0.000000	0.000000	0.000000	0.000000	0.000000	-0.000000	0.000000	-45.232230	645.307083	-5.000672	0.573477	0.000000	-0.883999	0.000025	-16.059448	0.000019
15.316000	-0.000000	0.000000	-0.000000	0.000000	0.000000	0.000000	0.000000	-0.000000	0.000000	-45.211434	646.288401	-5.574222	0.573503	0.000000	-0.882803	0.000025	-16.091827	0.000020
15.317000	-0.000000	0.000000	-0.000000	0.000000	0.000000	0.000000	0.000000	-0.000000	0.000000	-45.195546	647.302937	-6.145728	0.573529	0.000000	-0.881610	0.000025	-16.125308	0.000020
15.318000	-0.000000	0.000000	-0.000000	0.000000	0.000000	0.000000	0.000000	-0.000000	0.000000	-45.184566	648.350803	-6.715095	0.573552	0.000000	-0.880420	0.000024	-16.159871	0.000021
15.319000	-0.000000	0.000000	-0.000000	0.000000	0.000000	0.000000	0.000000	-0.000000	0.000000	-45.178480	649.432080	-7.282250	0.573574	0.000000	-0.879234	0.000024	-16.195495	0.000021
15.320000	-0.000000	0.000000	-0.000000	0.000000	0.000000	0.000000	0.000000	-0.000000	0.000000	-45.177267	650.546812	-7.847139	0.573594	0.000000	-0.878052	0.000024	-16.232159	0.000022
15.321000	-0.000000	0.000000	-0.000000	0.000000	0.000000	0.000000	0.000000	-0.000000	0.000000	-45.180895	651.695012	-8.409728	0.573612	0.000000	-0.876875	0.000024	-16.269841	0.000022
15.322000	-0.000000	0.000000	-0.000000	0.000000	0.000000	0.000000	0.000000	-0.000000	0.000000	-45.189326	652.876654	-8.970006	0.573629	0.000000	-0.875702	0.000024	-16.308516	0.000022
15.323000	-0.000000	0.000000	0.000000	0.000000	0.000000	0.000000	0.000000	-0.000000	0.000000	-45.202510	654.091679	-9.527978	0.573643	0.000000	-0.874534	0.000023	-16.348160	0.000023
15.324000	-0.000000	0.000000	0.000000	0.000000	0.000000	0.000000	0.000000	-0.000000	0.000000	-45.220394	655.339993	-10.083673	0.573657	0.000000	-0.873371	0.000023	-16.388748	0.000023
15.325000	-0.000000	0.000000	0.000000	0.000000	0.000000	0.000000	0.000000	-0.000000	0.000000	-45.242916	656.621468	-10.637134	0.573668	0.000000	-0.872214	0.000023	-16.430255	0.000023
15.326000	-0.000000	0.000000	0.000000	0.000000	0.000000	0.000000	0.000000	-0.000000	0.000000	-45.270008	657.935940	-11.188426	0.573678	0.000000	-0.871062	0.000023	-16.472653	0.000023
15.327000	-0.000000	0.000000	0.000000	0.000000	0.000000	0.000000	0.000000	-0.000000	0.000000	-45.301600	659.283210	-11.737630	0.573686	0.000000	-0.869915	0.000023	-16.515917	0.000024
15.328000	-0.000000	0.000000	0.000000	0.000000	0.000000	0.000000	0.000000	-0.000000	0.000000	-45.337616	660.663047	-12.284844	0.573693	0.000000	-0.868773	0.000023	-16.560018	0.000024
15.329000	-0.000000	0.000000	0.000000	0.000000	0.000000	0.000000	0.000000	-0.000000	0.000000	-45.377976	662.075185	-12.830184	0.573699	0.000000	-0.867638	0.000023	-16.604929	0.000024
15.330000	-0.000000	0.000000	0.000000	0.000000	0.000000	0.000000	0.000000	-0.000000	0.000000	-45.422598	663.519324	-13.373781	0.573702	0.000000	-0.866507	0.000023	-16.650622	0.000024
15.331000	-0.000000	0.000000	0.000000	0.000000	0.000000	0.000000	0.000000	-0.000000	0.000000	-45.471399	664.995134	-13.915779	0.573705	0.000000	-0.865383	0.000023	-16.697068	0.000024
15.332000	-0.000000	0.000000	0.000000	0.000000	0.000000	0.000000	0.000000	-0.000000	0.000000	-45.524293	666.502250	-14.456339	0.573706	0.000000	-0.864263	0.000023	-16.744239	0.000025
15.333000	-0.000000	0.000000	0.000000	0.000000	0.000000	0.000000	0.000000	-0.000000	0.000000	-45.581195	668.040278	-14.995634	0.573706	0.000000	-0.863150	0.000023	-16.792107	0.000025
15.334000	-0.000000	0.000000	0.000000	0.000000	0.000000	0.000000	0.000000	-0.000000	0.000000	-45.642019	669.608790	-15.533849	0.573705	0.000000	-0.862041	0.000023	-16.840641	0.000025
15.335000	-0.000000	0.000000	0.000000	0.000000	0.000000	0.000000	0.000000	-0.000000	0.000000	-45.706680	671.207332	-16.071183	0.573702	0.000000	-0.860938	0.000023	-16.889813	0.000025
15.336000	-0.000000	0.000000	0.000000	0.000000	0.000000	0.000000	0.000000	0.000000	0.000000	-45.775094	672.835419	-16.607842	0.573699	0.000000	-0.859841	0.000023	-16.939594	0.000025
15.337000	-0.000000	0.000000	0.000000	0.000000	0.000000	0.000000	0.000000	0.000000	0.000000	-45.847180	674.492538	-17.144045	0.573694	0.000000	-0.858748	0.000023	-16.989954	0.000025
